<svg width="26" height="22" viewBox="0 0 26 22" fill="none" xmlns="http://www.w3.org/2000/svg">
<path d="M6.87893 11.5329H25.943C25.911 11.6643 25.8933 11.7814 25.8577 11.8915C25.4529 13.2269 25.0374 14.5622 24.6396 15.9011C24.5615 16.1604 24.4443 16.2456 24.1886 16.2456C20.6691 16.2349 17.1532 16.2811 13.6337 16.2243C10.6825 16.1781 8.50194 14.6688 7.0494 11.9377C6.98548 11.817 6.94286 11.6891 6.87538 11.5293L6.87893 11.5329Z" fill="#F3BA2F"/>
<path d="M19.0498 10.478H-6.10352e-05C0.340876 9.37 0.674712 8.27971 1.0121 7.19298C1.15415 6.73484 1.18967 6.10269 1.48799 5.87895C1.80762 5.64101 2.37939 5.78661 2.84463 5.78306C6.00185 5.77951 9.16262 5.74044 12.3198 5.79371C15.3066 5.84343 17.4978 7.37055 18.9503 10.1407C18.9894 10.2152 19.0178 10.2934 19.0498 10.3715C19.0569 10.3964 19.0498 10.4248 19.0498 10.478Z" fill="#6359E9"/>
<path d="M6.86825 4.73817C7.26246 3.78284 7.80228 2.98377 8.4806 2.29124C9.92958 0.806744 11.6733 0.0325316 13.6728 0.0147745C16.9401 -0.0136369 20.2074 0.0076701 23.4747 0.0076701C23.5777 0.0076701 23.6771 0.0254279 23.8263 0.0360821C23.6665 0.55459 23.5209 1.03758 23.3717 1.51703C23.0734 2.49012 22.7751 3.45966 22.4803 4.43275C22.4199 4.63518 22.356 4.76303 22.1039 4.76303C17.1035 4.75237 12.1031 4.75593 7.0991 4.75593C7.03517 4.75593 6.97479 4.74528 6.8647 4.73462L6.86825 4.73817Z" fill="#F3BA2F"/>
<path d="M2.13771 21.9727C2.39341 21.1452 2.63491 20.3532 2.87995 19.5613C3.08594 18.8865 3.30613 18.2153 3.4979 17.537C3.55828 17.3239 3.63996 17.2422 3.8566 17.2422C8.88541 17.2493 13.9107 17.2493 18.9395 17.2493C18.975 17.2493 19.0105 17.267 19.0887 17.2848C18.7619 18.1052 18.3038 18.8119 17.7427 19.4405C16.2511 21.1097 14.4114 21.9727 12.2593 21.9869C8.99196 22.0117 5.72465 21.994 2.45734 21.994C2.36855 21.994 2.27976 21.9798 2.14126 21.9691L2.13771 21.9727Z" fill="#6359E9"/>
</svg>
